<svg width="146" height="145" viewBox="0 0 146 145" fill="none" xmlns="http://www.w3.org/2000/svg">
<mask id="path-1-outside-1_0_219" maskUnits="userSpaceOnUse" x="0" y="0" width="146" height="145" fill="black">
<rect fill="white" width="146" height="145"/>
<path d="M129.533 83.3875L142.014 85.1761L143.192 76.9782L130.711 75.1896L130.962 73.4449L145 75.4567L143.321 87.144L129.283 85.1322L129.533 83.3875Z"/>
<path d="M125.384 95.805C125.832 94.8577 126.407 94.0721 127.11 93.4484C127.812 92.8246 128.591 92.3701 129.447 92.0849C130.31 91.8185 131.218 91.7221 132.17 91.7956C133.123 91.8692 134.074 92.1296 135.022 92.5769C135.971 93.0242 136.776 93.5919 137.439 94.2799C138.101 94.968 138.597 95.7263 138.926 96.5548C139.262 97.4022 139.412 98.2949 139.376 99.2329C139.341 100.171 139.099 101.114 138.651 102.061C138.203 103.008 137.628 103.794 136.925 104.418C136.223 105.041 135.44 105.487 134.578 105.753C133.722 106.038 132.817 106.144 131.865 106.07C130.912 105.997 129.961 105.736 129.013 105.289C128.064 104.842 127.259 104.274 126.596 103.586C125.934 102.898 125.435 102.13 125.099 101.283C124.769 100.454 124.623 99.5712 124.659 98.6331C124.694 97.695 124.936 96.7523 125.384 95.805ZM126.807 96.4759C126.468 97.1928 126.291 97.8998 126.275 98.5968C126.271 99.2998 126.404 99.9649 126.672 100.592C126.952 101.225 127.355 101.799 127.88 102.313C128.412 102.845 129.05 103.287 129.793 103.638C130.537 103.988 131.283 104.199 132.033 104.271C132.777 104.356 133.476 104.302 134.132 104.11C134.787 103.918 135.379 103.594 135.907 103.139C136.449 102.69 136.889 102.107 137.228 101.39C137.567 100.673 137.741 99.9568 137.75 99.241C137.766 98.5441 137.64 97.8819 137.373 97.2547C137.105 96.6274 136.702 96.0539 136.164 95.534C135.626 95.0142 134.985 94.5789 134.242 94.2284C133.498 93.8778 132.755 93.6602 132.011 93.5756C131.28 93.4971 130.58 93.5508 129.912 93.7368C129.257 93.9289 128.659 94.2495 128.117 94.6986C127.583 95.1666 127.146 95.759 126.807 96.4759Z"/>
<path d="M122.326 106.003C122.061 106.336 121.871 106.671 121.757 107.007C121.633 107.353 121.627 107.76 121.739 108.225C121.852 108.691 122.113 109.235 122.524 109.857C122.925 110.489 123.519 111.268 124.305 112.193L128.988 117.624L123.15 124.033L113.823 115.559L112.95 116.517L109.852 113.702L111.04 112.399L112.974 114.156L120.085 106.349L118.151 104.592L119.338 103.288L122.326 106.003ZM123.038 113.395C122.05 112.249 121.371 111.259 121.001 110.425C120.63 109.591 120.474 108.846 120.534 108.192L115.011 114.255L123.174 121.672L126.765 117.729L123.038 113.395Z"/>
<path d="M100.362 123.339L103.081 125.358L109.091 121.661L108.51 118.328L110.23 117.27L112.814 132.315L110.949 133.462L98.6425 124.397L100.362 123.339ZM110.914 131.339L109.482 123.267L104.358 126.418L110.914 131.339Z"/>
<path d="M92.0699 126.971L95.7349 139.02L100.028 137.718L100.485 139.221L90.1907 142.345L89.7334 140.841L94.0463 139.533L90.3813 127.484L92.0699 126.971Z"/>
<path d="M81.1286 144L80.8461 138.38L76.9175 138.577C76.2238 138.611 75.5952 138.53 75.0317 138.331C74.4682 138.132 73.9854 137.845 73.5832 137.468C73.1818 137.106 72.8688 136.668 72.6443 136.154C72.4206 135.655 72.2941 135.116 72.265 134.536C72.2358 133.957 72.3072 133.4 72.4791 132.867C72.6517 132.348 72.9192 131.881 73.2815 131.466C73.6304 131.066 74.0752 130.739 74.616 130.485C75.1567 130.231 75.781 130.086 76.4889 130.051L82.18 129.765L82.8912 143.912L81.1286 144ZM80.7672 136.81L80.4964 131.423L76.7802 131.609C75.9307 131.652 75.2636 131.934 74.7788 132.454C74.2799 132.975 74.0507 133.639 74.0912 134.445C74.1317 135.251 74.4263 135.888 74.975 136.356C75.5096 136.826 76.2015 137.039 77.051 136.997L80.7672 136.81Z"/>
<path d="M55.8482 127.322C56.4369 127.528 56.9712 127.782 57.4509 128.085C57.9219 128.369 58.3431 128.689 58.7145 129.043C59.0724 129.393 59.3719 129.76 59.6128 130.145C59.8403 130.524 60.0073 130.905 60.1138 131.287L58.7584 132.006C58.5394 131.344 58.1272 130.721 57.5216 130.134C56.9161 129.548 56.1985 129.11 55.3689 128.82C54.3119 128.451 53.4118 128.384 52.6687 128.619C51.9074 128.863 51.3911 129.373 51.1197 130.148C50.9747 130.562 50.9377 130.947 51.0087 131.301C51.0616 131.665 51.2092 131.994 51.4514 132.288C51.6937 132.583 52.0125 132.852 52.4079 133.095C52.8033 133.338 53.2552 133.548 53.7637 133.726L56.4933 134.679L55.9739 136.163L53.2443 135.209C52.8027 135.055 52.3739 134.95 51.9578 134.895C51.5236 134.848 51.129 134.86 50.7738 134.931C50.4139 135.015 50.1002 135.161 49.8327 135.367C49.5604 135.587 49.3565 135.891 49.2208 136.278C49.0898 136.653 49.0621 137.01 49.1378 137.352C49.2001 137.689 49.3457 138.002 49.5745 138.292C49.7987 138.595 50.0884 138.861 50.4437 139.09C50.7943 139.333 51.1904 139.531 51.6319 139.685C53.1439 140.213 54.5978 140.114 55.9938 139.387L56.552 140.751C55.8377 141.162 55.0046 141.418 54.0527 141.521C53.0827 141.632 52.0625 141.5 50.9921 141.127C50.3364 140.898 49.749 140.602 49.2298 140.241C48.6972 139.875 48.2707 139.464 47.9501 139.007C47.6115 138.559 47.3947 138.063 47.2995 137.52C47.1997 136.99 47.2481 136.444 47.4446 135.883C47.6131 135.402 47.8541 135.014 48.1678 134.718C48.4815 134.423 48.8232 134.197 49.1931 134.042C49.563 133.886 49.95 133.789 50.354 133.75C50.74 133.72 51.0962 133.732 51.4227 133.786C51.1243 133.651 50.8202 133.448 50.5104 133.174C50.2006 132.901 49.9386 132.577 49.7245 132.203C49.5103 131.828 49.3731 131.405 49.3128 130.934C49.239 130.458 49.2958 129.953 49.483 129.419C49.6795 128.857 49.9801 128.385 50.3847 128.001C50.7893 127.618 51.2732 127.329 51.8364 127.136C52.395 126.956 53.0171 126.874 53.7028 126.888C54.3838 126.916 55.0989 127.061 55.8482 127.322Z"/>
<path d="M37.9721 118.382L37.2318 121.684L43.0594 125.663L45.8709 123.775L47.5384 124.914L34.8307 133.395L33.0227 132.161L36.3046 117.244L37.9721 118.382ZM34.9499 131.264L41.7502 126.672L36.7827 123.281L34.9499 131.264Z"/>
<path d="M34.0085 115.491L27.1303 116.376C27.4132 116.768 27.6279 117.2 27.7744 117.672C27.9116 118.134 27.9627 118.604 27.9278 119.083C27.8928 119.563 27.7572 120.045 27.5208 120.529C27.2752 121.003 26.9111 121.448 26.4285 121.865C25.9352 122.291 25.4206 122.595 24.8848 122.776C24.3396 122.948 23.7979 123.004 23.2595 122.944C22.7104 122.894 22.1847 122.731 21.6824 122.453C21.1707 122.165 20.7017 121.775 20.2754 121.282L16.5493 116.976L27.2794 107.714L28.4333 109.048L24.1703 112.728L26.0333 114.881L32.6599 113.932L34.0085 115.491ZM22.9959 113.741L18.8937 117.282L21.3407 120.11C21.8875 120.742 22.5201 121.094 23.2384 121.166C23.9567 121.239 24.6215 121.011 25.2329 120.483C25.8442 119.956 26.1714 119.327 26.2145 118.597C26.247 117.877 25.9897 117.201 25.4429 116.569L22.9959 113.741Z"/>
<path d="M24.3562 104.049L11.6465 110.333L8.84473 104.681C8.5743 104.135 8.4116 103.6 8.35663 103.074C8.28896 102.555 8.32574 102.07 8.46698 101.621C8.59552 101.179 8.82217 100.774 9.14692 100.408C9.45897 100.049 9.85001 99.7528 10.32 99.5204C10.7265 99.3194 11.1264 99.2007 11.5196 99.1642C11.9065 99.1151 12.2804 99.1356 12.6414 99.2257C12.9834 99.3093 13.303 99.4435 13.6002 99.6283C13.8847 99.8194 14.131 100.045 14.3392 100.306C14.2202 99.9378 14.1837 99.561 14.2296 99.175C14.2692 98.7762 14.3753 98.3999 14.5478 98.0461C14.7141 97.6795 14.9436 97.3449 15.2364 97.0421C15.523 96.7267 15.8568 96.4748 16.2379 96.2863C16.746 96.0351 17.2506 95.8883 17.7515 95.846C18.2525 95.8036 18.734 95.8657 19.1961 96.0321C19.6582 96.1985 20.0851 96.4693 20.4766 96.8444C20.8619 97.2068 21.1992 97.6798 21.4885 98.2634L24.3562 104.049ZM14.4837 102.224C14.1253 101.501 13.6643 101.05 13.1008 100.87C12.5246 100.697 11.9443 100.755 11.36 101.044C10.7883 101.327 10.3968 101.749 10.1854 102.312C9.96123 102.881 10.0284 103.527 10.3869 104.25L12.2736 108.056L16.3704 106.031L14.4837 102.224ZM20.2387 99.2842C19.8677 98.5356 19.391 98.0526 18.8086 97.835C18.2073 97.611 17.5636 97.6686 16.8777 98.0078C16.5855 98.1523 16.3312 98.3412 16.1147 98.5746C15.8982 98.808 15.745 99.0733 15.6551 99.3705C15.5462 99.6613 15.5069 99.9809 15.5372 100.329C15.5548 100.684 15.6611 101.058 15.8561 101.451L17.7805 105.333L22.1632 103.167L20.2387 99.2842Z"/>
<path d="M16.2123 82.0074L11.029 88.5382L12.8957 89.6121L17.5636 88.6674L17.9141 90.3949L4.01462 93.2079L3.66412 91.4805L10.8535 90.0254L2.41839 85.3408L1.97922 83.1763L9.75907 87.6252L15.7774 79.8637L16.2123 82.0074Z"/>
<path d="M15.5722 74.8299C15.5401 75.4236 15.4045 75.9621 15.1654 76.4454C14.9263 76.9287 14.637 77.2888 14.2977 77.5257L12.9366 76.7078C13.2193 76.4679 13.4611 76.1974 13.662 75.8964C13.8636 75.5812 13.9751 75.2256 13.9965 74.8298C14.0118 74.5471 13.9895 74.3049 13.9294 74.1031C13.8701 73.8873 13.7676 73.6832 13.6218 73.4911C13.4619 73.2981 13.2588 73.117 13.0125 72.9478C12.7669 72.7644 12.4654 72.5638 12.1081 72.346L11.6336 72.0652L1 76.9351L1.10907 74.9207L10.1176 70.9625L1.58895 66.0572L1.69802 64.0427L13.02 70.8428C13.4323 71.0919 13.8019 71.3458 14.1286 71.6044C14.4552 71.8631 14.7309 72.1474 14.9554 72.4572C15.18 72.7671 15.3456 73.1163 15.4523 73.5049C15.5598 73.8793 15.5998 74.3209 15.5722 74.8299Z"/>
<path d="M22.6768 44.8808L11.4189 39.2103L7.68482 46.6049L18.9427 52.2755L18.148 53.8493L5.48527 47.4711L10.8087 36.9289L23.4715 43.3071L22.6768 44.8808Z"/>
<path d="M30.5037 34.434C29.7783 35.1907 28.9835 35.7537 28.1194 36.123C27.2552 36.4923 26.372 36.6767 25.4697 36.6763C24.5669 36.6559 23.6754 36.4601 22.795 36.0887C21.9147 35.7174 21.0957 35.1695 20.338 34.445C19.5803 33.7206 18.9965 32.9273 18.5867 32.0651C18.1769 31.2029 17.9472 30.3267 17.8977 29.4367C17.8478 28.5266 17.9887 27.6323 18.3204 26.754C18.6521 25.8757 19.1806 25.0581 19.906 24.3013C20.6314 23.5446 21.4261 22.9816 22.2903 22.6123C23.1545 22.243 24.0379 22.0686 24.9407 22.089C25.843 22.0894 26.7343 22.2752 27.6146 22.6466C28.495 23.0179 29.314 23.5658 30.0717 24.2903C30.8294 25.0147 31.4132 25.808 31.823 26.6702C32.2328 27.5324 32.4627 28.4186 32.5126 29.3287C32.5621 30.2187 32.421 31.103 32.0893 31.9813C31.7576 32.8596 31.229 33.6772 30.5037 34.434ZM29.3671 33.3473C29.916 32.7746 30.3087 32.1603 30.545 31.5043C30.7711 30.8385 30.8566 30.1658 30.8017 29.4861C30.7365 28.7966 30.5364 28.1251 30.2013 27.4715C29.8658 26.798 29.4011 26.1773 28.8072 25.6095C28.2133 25.0416 27.5722 24.605 26.8838 24.2996C26.2052 23.9839 25.5247 23.8135 24.8424 23.7883C24.1601 23.7631 23.496 23.8827 22.8502 24.1471C22.194 24.4017 21.5915 24.8154 21.0426 25.388C20.4936 25.9607 20.1012 26.5851 19.8654 27.2611C19.629 27.917 19.5383 28.5849 19.5933 29.2646C19.6482 29.9442 19.8484 30.6158 20.1937 31.2791C20.539 31.9424 21.0086 32.558 21.6025 33.1258C22.1964 33.6937 22.8326 34.1354 23.5112 34.451C24.1796 34.7569 24.86 34.9273 25.5525 34.9623C26.2348 34.9875 26.904 34.8728 27.5602 34.6182C28.2159 34.3436 28.8182 33.9199 29.3671 33.3473Z"/>
<path d="M36.5222 25.7219C36.8792 25.4893 37.1651 25.2316 37.38 24.9488C37.6073 24.659 37.7412 24.2755 37.7818 23.7981C37.8224 23.3208 37.7461 22.7223 37.553 22.0026C37.3722 21.276 37.0549 20.3499 36.6011 19.2243L33.8749 12.5947L41.4398 8.35389L47.6112 19.335L48.7422 18.701L50.7924 22.349L49.2535 23.2117L47.9734 20.934L38.7584 26.0999L40.0385 28.3776L38.4996 29.2403L36.5222 25.7219ZM38.1839 18.4831C38.7587 19.8818 39.0901 21.0354 39.178 21.9439C39.266 22.8525 39.1784 23.6078 38.9153 24.2098L46.0723 20.1977L40.671 10.5869L36.0171 13.1958L38.1839 18.4831Z"/>
<path d="M62.9852 16.1308L61.0558 13.3498L54.1772 14.9339L53.6618 18.2779L51.6935 18.7312L54.0595 3.65052L56.1936 3.15905L64.9535 15.6775L62.9852 16.1308ZM55.5478 5.18196L54.3209 13.2881L60.1842 11.9378L55.5478 5.18196Z"/>
<path d="M72.2186 15.2957L72.6078 2.70901L68.1236 2.57068L68.1722 1L78.9258 1.33172L78.8773 2.90241L74.3718 2.76342L73.9825 15.3501L72.2186 15.2957Z"/>
<path d="M88.0938 2.62378L86.5583 8.03821L90.3429 9.10882C91.0112 9.29787 91.5804 9.57659 92.0505 9.945C92.5206 10.3134 92.8857 10.7404 93.1457 11.2259C93.4097 11.6979 93.5657 12.2129 93.6137 12.7709C93.6655 13.3152 93.6123 13.8667 93.4539 14.4251C93.2955 14.9836 93.0494 15.4878 92.7155 15.9378C92.3855 16.3741 91.9823 16.7309 91.5059 17.0082C91.047 17.2756 90.5207 17.4431 89.927 17.5106C89.3333 17.578 88.6955 17.5153 88.0136 17.3224L82.5309 15.7715L86.3958 2.14345L88.0938 2.62378ZM86.1295 9.55016L84.6577 14.7398L88.2378 15.7526C89.0561 15.9841 89.7783 15.9309 90.4045 15.593C91.0443 15.259 91.4743 14.7038 91.6945 13.9274C91.9147 13.151 91.8401 12.4531 91.4707 11.8336C91.1149 11.218 90.5279 10.7944 89.7096 10.5629L86.1295 9.55016Z"/>
<path d="M106.436 26.3267C105.944 25.944 105.519 25.5327 105.161 25.0929C104.806 24.673 104.509 24.2357 104.271 23.7811C104.043 23.3352 103.877 22.8918 103.772 22.4509C103.677 22.0188 103.641 21.6047 103.662 21.2086L105.177 20.96C105.173 21.6566 105.364 22.3794 105.75 23.1284C106.136 23.8774 106.676 24.5215 107.369 25.0609C108.252 25.7481 109.084 26.0988 109.863 26.113C110.663 26.1248 111.315 25.8067 111.82 25.1589C112.09 24.8127 112.248 24.4602 112.295 24.1014C112.361 23.7401 112.326 23.3812 112.191 23.0248C112.056 22.6683 111.84 22.3118 111.543 21.9553C111.246 21.5987 110.885 21.2551 110.46 20.9246L108.179 19.1499L109.145 17.9102L111.427 19.6848C111.796 19.9719 112.169 20.2081 112.545 20.3933C112.942 20.5761 113.32 20.6906 113.679 20.7368C114.047 20.7718 114.391 20.7342 114.71 20.6239C115.038 20.5024 115.329 20.2798 115.581 19.9559C115.825 19.6431 115.966 19.313 116.004 18.9653C116.052 18.6264 116.015 18.283 115.891 17.9353C115.775 17.5764 115.586 17.2317 115.323 16.9012C115.068 16.5596 114.756 16.2452 114.387 15.9582C113.123 14.9751 111.714 14.6054 110.158 14.8489L110.066 13.3775C110.874 13.2167 111.746 13.2396 112.681 13.4464C113.635 13.6506 114.56 14.1008 115.454 14.7967C116.002 15.223 116.465 15.6901 116.841 16.1982C117.229 16.715 117.501 17.2411 117.659 17.7763C117.836 18.3091 117.883 18.848 117.799 19.3931C117.724 19.9269 117.504 20.4284 117.138 20.8975C116.824 21.2996 116.472 21.5905 116.08 21.7703C115.688 21.95 115.292 22.0547 114.892 22.0842C114.492 22.1137 114.094 22.0824 113.698 21.9903C113.323 21.8956 112.989 21.7706 112.697 21.6152C112.937 21.8376 113.16 22.1277 113.366 22.4855C113.572 22.8432 113.717 23.2338 113.8 23.6573C113.883 24.0807 113.878 24.5252 113.784 24.9908C113.702 25.465 113.486 25.9256 113.138 26.3723C112.772 26.8414 112.336 27.1931 111.83 27.4274C111.324 27.6618 110.773 27.7806 110.177 27.7839C109.591 27.776 108.975 27.6558 108.33 27.4232C107.693 27.1794 107.062 26.8139 106.436 26.3267Z"/>
<path d="M120.583 40.4166L122.327 37.5158L118.05 31.9066L114.787 32.8138L113.563 31.2087L128.299 27.1558L129.625 28.896L121.807 42.0216L120.583 40.4166ZM127.514 29.1407L119.611 31.3601L123.257 36.1414L127.514 29.1407Z"/>
<path d="M123.536 44.5127L130.338 45.8594C130.195 45.3979 130.129 44.9199 130.141 44.4256C130.158 43.9444 130.259 43.4821 130.445 43.0389C130.631 42.5956 130.913 42.1818 131.291 41.7974C131.675 41.4262 132.162 41.1197 132.752 40.8781C133.355 40.6312 133.94 40.5067 134.506 40.5045C135.077 40.5155 135.609 40.6346 136.1 40.8618C136.605 41.0836 137.051 41.4059 137.439 41.8285C137.832 42.2642 138.153 42.7834 138.4 43.386L140.561 48.6521L127.438 54.0231L126.769 52.3922L131.982 50.2583L130.902 47.6252L124.318 46.4188L123.536 44.5127ZM133.419 49.6704L138.436 47.617L137.017 44.1587C136.699 43.3858 136.212 42.851 135.554 42.5542C134.896 42.2574 134.193 42.262 133.446 42.568C132.698 42.874 132.187 43.366 131.914 44.0439C131.654 44.7165 131.682 45.4392 132 46.2121L133.419 49.6704Z"/>
<path d="M129.1 58.5841L143.161 56.734L143.985 62.9869C144.065 63.5904 144.046 64.1498 143.928 64.6651C143.824 65.1786 143.633 65.625 143.354 66.0044C143.089 66.3819 142.744 66.6915 142.319 66.9332C141.907 67.173 141.441 67.3271 140.921 67.3955C140.471 67.4547 140.055 67.4381 139.671 67.3458C139.289 67.2676 138.941 67.1277 138.629 66.926C138.332 66.7366 138.073 66.5065 137.852 66.2358C137.644 65.9632 137.484 65.6702 137.371 65.3566C137.365 65.743 137.278 66.1114 137.109 66.462C136.943 66.8266 136.721 67.1485 136.443 67.4278C136.167 67.7212 135.842 67.9639 135.467 68.156C135.094 68.3622 134.696 68.493 134.275 68.5485C133.713 68.6225 133.188 68.5987 132.7 68.4773C132.212 68.3559 131.776 68.1419 131.393 67.8354C131.009 67.5289 130.693 67.135 130.443 66.6537C130.196 66.1865 130.03 65.6301 129.944 64.9844L129.1 58.5841ZM137.854 63.4938C137.96 64.2938 138.25 64.8696 138.726 65.2212C139.215 65.5709 139.783 65.7032 140.429 65.6181C141.062 65.5349 141.569 65.2611 141.951 64.7968C142.347 64.3306 142.492 63.6974 142.387 62.8974L141.831 58.6867L137.299 59.2831L137.854 63.4938ZM131.457 64.4213C131.566 65.2494 131.861 65.8603 132.342 66.2539C132.839 66.6598 133.467 66.8128 134.226 66.7129C134.549 66.6704 134.851 66.5736 135.131 66.4224C135.411 66.2713 135.642 66.0696 135.823 65.8173C136.02 65.5772 136.161 65.2874 136.245 64.9479C136.343 64.6066 136.363 64.2184 136.306 63.7833L135.739 59.4883L130.891 60.1263L131.457 64.4213Z"/>
</mask>
<path d="M129.533 83.3875L142.014 85.1761L143.192 76.9782L130.711 75.1896L130.962 73.4449L145 75.4567L143.321 87.144L129.283 85.1322L129.533 83.3875Z" fill="black"/>
<path d="M125.384 95.805C125.832 94.8577 126.407 94.0721 127.11 93.4484C127.812 92.8246 128.591 92.3701 129.447 92.0849C130.31 91.8185 131.218 91.7221 132.17 91.7956C133.123 91.8692 134.074 92.1296 135.022 92.5769C135.971 93.0242 136.776 93.5919 137.439 94.2799C138.101 94.968 138.597 95.7263 138.926 96.5548C139.262 97.4022 139.412 98.2949 139.376 99.2329C139.341 100.171 139.099 101.114 138.651 102.061C138.203 103.008 137.628 103.794 136.925 104.418C136.223 105.041 135.44 105.487 134.578 105.753C133.722 106.038 132.817 106.144 131.865 106.07C130.912 105.997 129.961 105.736 129.013 105.289C128.064 104.842 127.259 104.274 126.596 103.586C125.934 102.898 125.435 102.13 125.099 101.283C124.769 100.454 124.623 99.5712 124.659 98.6331C124.694 97.695 124.936 96.7523 125.384 95.805ZM126.807 96.4759C126.468 97.1928 126.291 97.8998 126.275 98.5968C126.271 99.2998 126.404 99.9649 126.672 100.592C126.952 101.225 127.355 101.799 127.88 102.313C128.412 102.845 129.05 103.287 129.793 103.638C130.537 103.988 131.283 104.199 132.033 104.271C132.777 104.356 133.476 104.302 134.132 104.11C134.787 103.918 135.379 103.594 135.907 103.139C136.449 102.69 136.889 102.107 137.228 101.39C137.567 100.673 137.741 99.9568 137.75 99.241C137.766 98.5441 137.64 97.8819 137.373 97.2547C137.105 96.6274 136.702 96.0539 136.164 95.534C135.626 95.0142 134.985 94.5789 134.242 94.2284C133.498 93.8778 132.755 93.6602 132.011 93.5756C131.28 93.4971 130.58 93.5508 129.912 93.7368C129.257 93.9289 128.659 94.2495 128.117 94.6986C127.583 95.1666 127.146 95.759 126.807 96.4759Z" fill="black"/>
<path d="M122.326 106.003C122.061 106.336 121.871 106.671 121.757 107.007C121.633 107.353 121.627 107.76 121.739 108.225C121.852 108.691 122.113 109.235 122.524 109.857C122.925 110.489 123.519 111.268 124.305 112.193L128.988 117.624L123.15 124.033L113.823 115.559L112.95 116.517L109.852 113.702L111.04 112.399L112.974 114.156L120.085 106.349L118.151 104.592L119.338 103.288L122.326 106.003ZM123.038 113.395C122.05 112.249 121.371 111.259 121.001 110.425C120.63 109.591 120.474 108.846 120.534 108.192L115.011 114.255L123.174 121.672L126.765 117.729L123.038 113.395Z" fill="black"/>
<path d="M100.362 123.339L103.081 125.358L109.091 121.661L108.51 118.328L110.23 117.27L112.814 132.315L110.949 133.462L98.6425 124.397L100.362 123.339ZM110.914 131.339L109.482 123.267L104.358 126.418L110.914 131.339Z" fill="black"/>
<path d="M92.0699 126.971L95.7349 139.02L100.028 137.718L100.485 139.221L90.1907 142.345L89.7334 140.841L94.0463 139.533L90.3813 127.484L92.0699 126.971Z" fill="black"/>
<path d="M81.1286 144L80.8461 138.38L76.9175 138.577C76.2238 138.611 75.5952 138.53 75.0317 138.331C74.4682 138.132 73.9854 137.845 73.5832 137.468C73.1818 137.106 72.8688 136.668 72.6443 136.154C72.4206 135.655 72.2941 135.116 72.265 134.536C72.2358 133.957 72.3072 133.4 72.4791 132.867C72.6517 132.348 72.9192 131.881 73.2815 131.466C73.6304 131.066 74.0752 130.739 74.616 130.485C75.1567 130.231 75.781 130.086 76.4889 130.051L82.18 129.765L82.8912 143.912L81.1286 144ZM80.7672 136.81L80.4964 131.423L76.7802 131.609C75.9307 131.652 75.2636 131.934 74.7788 132.454C74.2799 132.975 74.0507 133.639 74.0912 134.445C74.1317 135.251 74.4263 135.888 74.975 136.356C75.5096 136.826 76.2015 137.039 77.051 136.997L80.7672 136.81Z" fill="black"/>
<path d="M55.8482 127.322C56.4369 127.528 56.9712 127.782 57.4509 128.085C57.9219 128.369 58.3431 128.689 58.7145 129.043C59.0724 129.393 59.3719 129.76 59.6128 130.145C59.8403 130.524 60.0073 130.905 60.1138 131.287L58.7584 132.006C58.5394 131.344 58.1272 130.721 57.5216 130.134C56.9161 129.548 56.1985 129.11 55.3689 128.82C54.3119 128.451 53.4118 128.384 52.6687 128.619C51.9074 128.863 51.3911 129.373 51.1197 130.148C50.9747 130.562 50.9377 130.947 51.0087 131.301C51.0616 131.665 51.2092 131.994 51.4514 132.288C51.6937 132.583 52.0125 132.852 52.4079 133.095C52.8033 133.338 53.2552 133.548 53.7637 133.726L56.4933 134.679L55.9739 136.163L53.2443 135.209C52.8027 135.055 52.3739 134.95 51.9578 134.895C51.5236 134.848 51.129 134.86 50.7738 134.931C50.4139 135.015 50.1002 135.161 49.8327 135.367C49.5604 135.587 49.3565 135.891 49.2208 136.278C49.0898 136.653 49.0621 137.01 49.1378 137.352C49.2001 137.689 49.3457 138.002 49.5745 138.292C49.7987 138.595 50.0884 138.861 50.4437 139.09C50.7943 139.333 51.1904 139.531 51.6319 139.685C53.1439 140.213 54.5978 140.114 55.9938 139.387L56.552 140.751C55.8377 141.162 55.0046 141.418 54.0527 141.521C53.0827 141.632 52.0625 141.5 50.9921 141.127C50.3364 140.898 49.749 140.602 49.2298 140.241C48.6972 139.875 48.2707 139.464 47.9501 139.007C47.6115 138.559 47.3947 138.063 47.2995 137.52C47.1997 136.99 47.2481 136.444 47.4446 135.883C47.6131 135.402 47.8541 135.014 48.1678 134.718C48.4815 134.423 48.8232 134.197 49.1931 134.042C49.563 133.886 49.95 133.789 50.354 133.75C50.74 133.72 51.0962 133.732 51.4227 133.786C51.1243 133.651 50.8202 133.448 50.5104 133.174C50.2006 132.901 49.9386 132.577 49.7245 132.203C49.5103 131.828 49.3731 131.405 49.3128 130.934C49.239 130.458 49.2958 129.953 49.483 129.419C49.6795 128.857 49.9801 128.385 50.3847 128.001C50.7893 127.618 51.2732 127.329 51.8364 127.136C52.395 126.956 53.0171 126.874 53.7028 126.888C54.3838 126.916 55.0989 127.061 55.8482 127.322Z" fill="black"/>
<path d="M37.9721 118.382L37.2318 121.684L43.0594 125.663L45.8709 123.775L47.5384 124.914L34.8307 133.395L33.0227 132.161L36.3046 117.244L37.9721 118.382ZM34.9499 131.264L41.7502 126.672L36.7827 123.281L34.9499 131.264Z" fill="black"/>
<path d="M34.0085 115.491L27.1303 116.376C27.4132 116.768 27.6279 117.2 27.7744 117.672C27.9116 118.134 27.9627 118.604 27.9278 119.083C27.8928 119.563 27.7572 120.045 27.5208 120.529C27.2752 121.003 26.9111 121.448 26.4285 121.865C25.9352 122.291 25.4206 122.595 24.8848 122.776C24.3396 122.948 23.7979 123.004 23.2595 122.944C22.7104 122.894 22.1847 122.731 21.6824 122.453C21.1707 122.165 20.7017 121.775 20.2754 121.282L16.5493 116.976L27.2794 107.714L28.4333 109.048L24.1703 112.728L26.0333 114.881L32.6599 113.932L34.0085 115.491ZM22.9959 113.741L18.8937 117.282L21.3407 120.11C21.8875 120.742 22.5201 121.094 23.2384 121.166C23.9567 121.239 24.6215 121.011 25.2329 120.483C25.8442 119.956 26.1714 119.327 26.2145 118.597C26.247 117.877 25.9897 117.201 25.4429 116.569L22.9959 113.741Z" fill="black"/>
<path d="M24.3562 104.049L11.6465 110.333L8.84473 104.681C8.5743 104.135 8.4116 103.6 8.35663 103.074C8.28896 102.555 8.32574 102.07 8.46698 101.621C8.59552 101.179 8.82217 100.774 9.14692 100.408C9.45897 100.049 9.85001 99.7528 10.32 99.5204C10.7265 99.3194 11.1264 99.2007 11.5196 99.1642C11.9065 99.1151 12.2804 99.1356 12.6414 99.2257C12.9834 99.3093 13.303 99.4435 13.6002 99.6283C13.8847 99.8194 14.131 100.045 14.3392 100.306C14.2202 99.9378 14.1837 99.561 14.2296 99.175C14.2692 98.7762 14.3753 98.3999 14.5478 98.0461C14.7141 97.6795 14.9436 97.3449 15.2364 97.0421C15.523 96.7267 15.8568 96.4748 16.2379 96.2863C16.746 96.0351 17.2506 95.8883 17.7515 95.846C18.2525 95.8036 18.734 95.8657 19.1961 96.0321C19.6582 96.1985 20.0851 96.4693 20.4766 96.8444C20.8619 97.2068 21.1992 97.6798 21.4885 98.2634L24.3562 104.049ZM14.4837 102.224C14.1253 101.501 13.6643 101.05 13.1008 100.87C12.5246 100.697 11.9443 100.755 11.36 101.044C10.7883 101.327 10.3968 101.749 10.1854 102.312C9.96123 102.881 10.0284 103.527 10.3869 104.25L12.2736 108.056L16.3704 106.031L14.4837 102.224ZM20.2387 99.2842C19.8677 98.5356 19.391 98.0526 18.8086 97.835C18.2073 97.611 17.5636 97.6686 16.8777 98.0078C16.5855 98.1523 16.3312 98.3412 16.1147 98.5746C15.8982 98.808 15.745 99.0733 15.6551 99.3705C15.5462 99.6613 15.5069 99.9809 15.5372 100.329C15.5548 100.684 15.6611 101.058 15.8561 101.451L17.7805 105.333L22.1632 103.167L20.2387 99.2842Z" fill="black"/>
<path d="M16.2123 82.0074L11.029 88.5382L12.8957 89.6121L17.5636 88.6674L17.9141 90.3949L4.01462 93.2079L3.66412 91.4805L10.8535 90.0254L2.41839 85.3408L1.97922 83.1763L9.75907 87.6252L15.7774 79.8637L16.2123 82.0074Z" fill="black"/>
<path d="M15.5722 74.8299C15.5401 75.4236 15.4045 75.9621 15.1654 76.4454C14.9263 76.9287 14.637 77.2888 14.2977 77.5257L12.9366 76.7078C13.2193 76.4679 13.4611 76.1974 13.662 75.8964C13.8636 75.5812 13.9751 75.2256 13.9965 74.8298C14.0118 74.5471 13.9895 74.3049 13.9294 74.1031C13.8701 73.8873 13.7676 73.6832 13.6218 73.4911C13.4619 73.2981 13.2588 73.117 13.0125 72.9478C12.7669 72.7644 12.4654 72.5638 12.1081 72.346L11.6336 72.0652L1 76.9351L1.10907 74.9207L10.1176 70.9625L1.58895 66.0572L1.69802 64.0427L13.02 70.8428C13.4323 71.0919 13.8019 71.3458 14.1286 71.6044C14.4552 71.8631 14.7309 72.1474 14.9554 72.4572C15.18 72.7671 15.3456 73.1163 15.4523 73.5049C15.5598 73.8793 15.5998 74.3209 15.5722 74.8299Z" fill="black"/>
<path d="M22.6768 44.8808L11.4189 39.2103L7.68482 46.6049L18.9427 52.2755L18.148 53.8493L5.48527 47.4711L10.8087 36.9289L23.4715 43.3071L22.6768 44.8808Z" fill="black"/>
<path d="M30.5037 34.434C29.7783 35.1907 28.9835 35.7537 28.1194 36.123C27.2552 36.4923 26.372 36.6767 25.4697 36.6763C24.5669 36.6559 23.6754 36.4601 22.795 36.0887C21.9147 35.7174 21.0957 35.1695 20.338 34.445C19.5803 33.7206 18.9965 32.9273 18.5867 32.0651C18.1769 31.2029 17.9472 30.3267 17.8977 29.4367C17.8478 28.5266 17.9887 27.6323 18.3204 26.754C18.6521 25.8757 19.1806 25.0581 19.906 24.3013C20.6314 23.5446 21.4261 22.9816 22.2903 22.6123C23.1545 22.243 24.0379 22.0686 24.9407 22.089C25.843 22.0894 26.7343 22.2752 27.6146 22.6466C28.495 23.0179 29.314 23.5658 30.0717 24.2903C30.8294 25.0147 31.4132 25.808 31.823 26.6702C32.2328 27.5324 32.4627 28.4186 32.5126 29.3287C32.5621 30.2187 32.421 31.103 32.0893 31.9813C31.7576 32.8596 31.229 33.6772 30.5037 34.434ZM29.3671 33.3473C29.916 32.7746 30.3087 32.1603 30.545 31.5043C30.7711 30.8385 30.8566 30.1658 30.8017 29.4861C30.7365 28.7966 30.5364 28.1251 30.2013 27.4715C29.8658 26.798 29.4011 26.1773 28.8072 25.6095C28.2133 25.0416 27.5722 24.605 26.8838 24.2996C26.2052 23.9839 25.5247 23.8135 24.8424 23.7883C24.1601 23.7631 23.496 23.8827 22.8502 24.1471C22.194 24.4017 21.5915 24.8154 21.0426 25.388C20.4936 25.9607 20.1012 26.5851 19.8654 27.2611C19.629 27.917 19.5383 28.5849 19.5933 29.2646C19.6482 29.9442 19.8484 30.6158 20.1937 31.2791C20.539 31.9424 21.0086 32.558 21.6025 33.1258C22.1964 33.6937 22.8326 34.1354 23.5112 34.451C24.1796 34.7569 24.86 34.9273 25.5525 34.9623C26.2348 34.9875 26.904 34.8728 27.5602 34.6182C28.2159 34.3436 28.8182 33.9199 29.3671 33.3473Z" fill="black"/>
<path d="M36.5222 25.7219C36.8792 25.4893 37.1651 25.2316 37.38 24.9488C37.6073 24.659 37.7412 24.2755 37.7818 23.7981C37.8224 23.3208 37.7461 22.7223 37.553 22.0026C37.3722 21.276 37.0549 20.3499 36.6011 19.2243L33.8749 12.5947L41.4398 8.35389L47.6112 19.335L48.7422 18.701L50.7924 22.349L49.2535 23.2117L47.9734 20.934L38.7584 26.0999L40.0385 28.3776L38.4996 29.2403L36.5222 25.7219ZM38.1839 18.4831C38.7587 19.8818 39.0901 21.0354 39.178 21.9439C39.266 22.8525 39.1784 23.6078 38.9153 24.2098L46.0723 20.1977L40.671 10.5869L36.0171 13.1958L38.1839 18.4831Z" fill="black"/>
<path d="M62.9852 16.1308L61.0558 13.3498L54.1772 14.9339L53.6618 18.2779L51.6935 18.7312L54.0595 3.65052L56.1936 3.15905L64.9535 15.6775L62.9852 16.1308ZM55.5478 5.18196L54.3209 13.2881L60.1842 11.9378L55.5478 5.18196Z" fill="black"/>
<path d="M72.2186 15.2957L72.6078 2.70901L68.1236 2.57068L68.1722 1L78.9258 1.33172L78.8773 2.90241L74.3718 2.76342L73.9825 15.3501L72.2186 15.2957Z" fill="black"/>
<path d="M88.0938 2.62378L86.5583 8.03821L90.3429 9.10882C91.0112 9.29787 91.5804 9.57659 92.0505 9.945C92.5206 10.3134 92.8857 10.7404 93.1457 11.2259C93.4097 11.6979 93.5657 12.2129 93.6137 12.7709C93.6655 13.3152 93.6123 13.8667 93.4539 14.4251C93.2955 14.9836 93.0494 15.4878 92.7155 15.9378C92.3855 16.3741 91.9823 16.7309 91.5059 17.0082C91.047 17.2756 90.5207 17.4431 89.927 17.5106C89.3333 17.578 88.6955 17.5153 88.0136 17.3224L82.5309 15.7715L86.3958 2.14345L88.0938 2.62378ZM86.1295 9.55016L84.6577 14.7398L88.2378 15.7526C89.0561 15.9841 89.7783 15.9309 90.4045 15.593C91.0443 15.259 91.4743 14.7038 91.6945 13.9274C91.9147 13.151 91.8401 12.4531 91.4707 11.8336C91.1149 11.218 90.5279 10.7944 89.7096 10.5629L86.1295 9.55016Z" fill="black"/>
<path d="M106.436 26.3267C105.944 25.944 105.519 25.5327 105.161 25.0929C104.806 24.673 104.509 24.2357 104.271 23.7811C104.043 23.3352 103.877 22.8918 103.772 22.4509C103.677 22.0188 103.641 21.6047 103.662 21.2086L105.177 20.96C105.173 21.6566 105.364 22.3794 105.75 23.1284C106.136 23.8774 106.676 24.5215 107.369 25.0609C108.252 25.7481 109.084 26.0988 109.863 26.113C110.663 26.1248 111.315 25.8067 111.82 25.1589C112.09 24.8127 112.248 24.4602 112.295 24.1014C112.361 23.7401 112.326 23.3812 112.191 23.0248C112.056 22.6683 111.84 22.3118 111.543 21.9553C111.246 21.5987 110.885 21.2551 110.46 20.9246L108.179 19.1499L109.145 17.9102L111.427 19.6848C111.796 19.9719 112.169 20.2081 112.545 20.3933C112.942 20.5761 113.32 20.6906 113.679 20.7368C114.047 20.7718 114.391 20.7342 114.71 20.6239C115.038 20.5024 115.329 20.2798 115.581 19.9559C115.825 19.6431 115.966 19.313 116.004 18.9653C116.052 18.6264 116.015 18.283 115.891 17.9353C115.775 17.5764 115.586 17.2317 115.323 16.9012C115.068 16.5596 114.756 16.2452 114.387 15.9582C113.123 14.9751 111.714 14.6054 110.158 14.8489L110.066 13.3775C110.874 13.2167 111.746 13.2396 112.681 13.4464C113.635 13.6506 114.56 14.1008 115.454 14.7967C116.002 15.223 116.465 15.6901 116.841 16.1982C117.229 16.715 117.501 17.2411 117.659 17.7763C117.836 18.3091 117.883 18.848 117.799 19.3931C117.724 19.9269 117.504 20.4284 117.138 20.8975C116.824 21.2996 116.472 21.5905 116.08 21.7703C115.688 21.95 115.292 22.0547 114.892 22.0842C114.492 22.1137 114.094 22.0824 113.698 21.9903C113.323 21.8956 112.989 21.7706 112.697 21.6152C112.937 21.8376 113.16 22.1277 113.366 22.4855C113.572 22.8432 113.717 23.2338 113.8 23.6573C113.883 24.0807 113.878 24.5252 113.784 24.9908C113.702 25.465 113.486 25.9256 113.138 26.3723C112.772 26.8414 112.336 27.1931 111.83 27.4274C111.324 27.6618 110.773 27.7806 110.177 27.7839C109.591 27.776 108.975 27.6558 108.33 27.4232C107.693 27.1794 107.062 26.8139 106.436 26.3267Z" fill="black"/>
<path d="M120.583 40.4166L122.327 37.5158L118.05 31.9066L114.787 32.8138L113.563 31.2087L128.299 27.1558L129.625 28.896L121.807 42.0216L120.583 40.4166ZM127.514 29.1407L119.611 31.3601L123.257 36.1414L127.514 29.1407Z" fill="black"/>
<path d="M123.536 44.5127L130.338 45.8594C130.195 45.3979 130.129 44.9199 130.141 44.4256C130.158 43.9444 130.259 43.4821 130.445 43.0389C130.631 42.5956 130.913 42.1818 131.291 41.7974C131.675 41.4262 132.162 41.1197 132.752 40.8781C133.355 40.6312 133.94 40.5067 134.506 40.5045C135.077 40.5155 135.609 40.6346 136.1 40.8618C136.605 41.0836 137.051 41.4059 137.439 41.8285C137.832 42.2642 138.153 42.7834 138.4 43.386L140.561 48.6521L127.438 54.0231L126.769 52.3922L131.982 50.2583L130.902 47.6252L124.318 46.4188L123.536 44.5127ZM133.419 49.6704L138.436 47.617L137.017 44.1587C136.699 43.3858 136.212 42.851 135.554 42.5542C134.896 42.2574 134.193 42.262 133.446 42.568C132.698 42.874 132.187 43.366 131.914 44.0439C131.654 44.7165 131.682 45.4392 132 46.2121L133.419 49.6704Z" fill="black"/>
<path d="M129.1 58.5841L143.161 56.734L143.985 62.9869C144.065 63.5904 144.046 64.1498 143.928 64.6651C143.824 65.1786 143.633 65.625 143.354 66.0044C143.089 66.3819 142.744 66.6915 142.319 66.9332C141.907 67.173 141.441 67.3271 140.921 67.3955C140.471 67.4547 140.055 67.4381 139.671 67.3458C139.289 67.2676 138.941 67.1277 138.629 66.926C138.332 66.7366 138.073 66.5065 137.852 66.2358C137.644 65.9632 137.484 65.6702 137.371 65.3566C137.365 65.743 137.278 66.1114 137.109 66.462C136.943 66.8266 136.721 67.1485 136.443 67.4278C136.167 67.7212 135.842 67.9639 135.467 68.156C135.094 68.3622 134.696 68.493 134.275 68.5485C133.713 68.6225 133.188 68.5987 132.7 68.4773C132.212 68.3559 131.776 68.1419 131.393 67.8354C131.009 67.5289 130.693 67.135 130.443 66.6537C130.196 66.1865 130.03 65.6301 129.944 64.9844L129.1 58.5841ZM137.854 63.4938C137.96 64.2938 138.25 64.8696 138.726 65.2212C139.215 65.5709 139.783 65.7032 140.429 65.6181C141.062 65.5349 141.569 65.2611 141.951 64.7968C142.347 64.3306 142.492 63.6974 142.387 62.8974L141.831 58.6867L137.299 59.2831L137.854 63.4938ZM131.457 64.4213C131.566 65.2494 131.861 65.8603 132.342 66.2539C132.839 66.6598 133.467 66.8128 134.226 66.7129C134.549 66.6704 134.851 66.5736 135.131 66.4224C135.411 66.2713 135.642 66.0696 135.823 65.8173C136.02 65.5772 136.161 65.2874 136.245 64.9479C136.343 64.6066 136.363 64.2184 136.306 63.7833L135.739 59.4883L130.891 60.1263L131.457 64.4213Z" fill="black"/>
<path d="M129.533 83.3875L142.014 85.1761L143.192 76.9782L130.711 75.1896L130.962 73.4449L145 75.4567L143.321 87.144L129.283 85.1322L129.533 83.3875Z" stroke="black" mask="url(#path-1-outside-1_0_219)"/>
<path d="M125.384 95.805C125.832 94.8577 126.407 94.0721 127.11 93.4484C127.812 92.8246 128.591 92.3701 129.447 92.0849C130.31 91.8185 131.218 91.7221 132.17 91.7956C133.123 91.8692 134.074 92.1296 135.022 92.5769C135.971 93.0242 136.776 93.5919 137.439 94.2799C138.101 94.968 138.597 95.7263 138.926 96.5548C139.262 97.4022 139.412 98.2949 139.376 99.2329C139.341 100.171 139.099 101.114 138.651 102.061C138.203 103.008 137.628 103.794 136.925 104.418C136.223 105.041 135.44 105.487 134.578 105.753C133.722 106.038 132.817 106.144 131.865 106.07C130.912 105.997 129.961 105.736 129.013 105.289C128.064 104.842 127.259 104.274 126.596 103.586C125.934 102.898 125.435 102.13 125.099 101.283C124.769 100.454 124.623 99.5712 124.659 98.6331C124.694 97.695 124.936 96.7523 125.384 95.805ZM126.807 96.4759C126.468 97.1928 126.291 97.8998 126.275 98.5968C126.271 99.2998 126.404 99.9649 126.672 100.592C126.952 101.225 127.355 101.799 127.88 102.313C128.412 102.845 129.05 103.287 129.793 103.638C130.537 103.988 131.283 104.199 132.033 104.271C132.777 104.356 133.476 104.302 134.132 104.11C134.787 103.918 135.379 103.594 135.907 103.139C136.449 102.69 136.889 102.107 137.228 101.39C137.567 100.673 137.741 99.9568 137.75 99.241C137.766 98.5441 137.64 97.8819 137.373 97.2547C137.105 96.6274 136.702 96.0539 136.164 95.534C135.626 95.0142 134.985 94.5789 134.242 94.2284C133.498 93.8778 132.755 93.6602 132.011 93.5756C131.28 93.4971 130.58 93.5508 129.912 93.7368C129.257 93.9289 128.659 94.2495 128.117 94.6986C127.583 95.1666 127.146 95.759 126.807 96.4759Z" stroke="black" mask="url(#path-1-outside-1_0_219)"/>
<path d="M122.326 106.003C122.061 106.336 121.871 106.671 121.757 107.007C121.633 107.353 121.627 107.76 121.739 108.225C121.852 108.691 122.113 109.235 122.524 109.857C122.925 110.489 123.519 111.268 124.305 112.193L128.988 117.624L123.15 124.033L113.823 115.559L112.95 116.517L109.852 113.702L111.04 112.399L112.974 114.156L120.085 106.349L118.151 104.592L119.338 103.288L122.326 106.003ZM123.038 113.395C122.05 112.249 121.371 111.259 121.001 110.425C120.63 109.591 120.474 108.846 120.534 108.192L115.011 114.255L123.174 121.672L126.765 117.729L123.038 113.395Z" stroke="black" mask="url(#path-1-outside-1_0_219)"/>
<path d="M100.362 123.339L103.081 125.358L109.091 121.661L108.51 118.328L110.23 117.27L112.814 132.315L110.949 133.462L98.6425 124.397L100.362 123.339ZM110.914 131.339L109.482 123.267L104.358 126.418L110.914 131.339Z" stroke="black" mask="url(#path-1-outside-1_0_219)"/>
<path d="M92.0699 126.971L95.7349 139.02L100.028 137.718L100.485 139.221L90.1907 142.345L89.7334 140.841L94.0463 139.533L90.3813 127.484L92.0699 126.971Z" stroke="black" mask="url(#path-1-outside-1_0_219)"/>
<path d="M81.1286 144L80.8461 138.38L76.9175 138.577C76.2238 138.611 75.5952 138.53 75.0317 138.331C74.4682 138.132 73.9854 137.845 73.5832 137.468C73.1818 137.106 72.8688 136.668 72.6443 136.154C72.4206 135.655 72.2941 135.116 72.265 134.536C72.2358 133.957 72.3072 133.4 72.4791 132.867C72.6517 132.348 72.9192 131.881 73.2815 131.466C73.6304 131.066 74.0752 130.739 74.616 130.485C75.1567 130.231 75.781 130.086 76.4889 130.051L82.18 129.765L82.8912 143.912L81.1286 144ZM80.7672 136.81L80.4964 131.423L76.7802 131.609C75.9307 131.652 75.2636 131.934 74.7788 132.454C74.2799 132.975 74.0507 133.639 74.0912 134.445C74.1317 135.251 74.4263 135.888 74.975 136.356C75.5096 136.826 76.2015 137.039 77.051 136.997L80.7672 136.81Z" stroke="black" mask="url(#path-1-outside-1_0_219)"/>
<path d="M55.8482 127.322C56.4369 127.528 56.9712 127.782 57.4509 128.085C57.9219 128.369 58.3431 128.689 58.7145 129.043C59.0724 129.393 59.3719 129.76 59.6128 130.145C59.8403 130.524 60.0073 130.905 60.1138 131.287L58.7584 132.006C58.5394 131.344 58.1272 130.721 57.5216 130.134C56.9161 129.548 56.1985 129.11 55.3689 128.82C54.3119 128.451 53.4118 128.384 52.6687 128.619C51.9074 128.863 51.3911 129.373 51.1197 130.148C50.9747 130.562 50.9377 130.947 51.0087 131.301C51.0616 131.665 51.2092 131.994 51.4514 132.288C51.6937 132.583 52.0125 132.852 52.4079 133.095C52.8033 133.338 53.2552 133.548 53.7637 133.726L56.4933 134.679L55.9739 136.163L53.2443 135.209C52.8027 135.055 52.3739 134.95 51.9578 134.895C51.5236 134.848 51.129 134.86 50.7738 134.931C50.4139 135.015 50.1002 135.161 49.8327 135.367C49.5604 135.587 49.3565 135.891 49.2208 136.278C49.0898 136.653 49.0621 137.01 49.1378 137.352C49.2001 137.689 49.3457 138.002 49.5745 138.292C49.7987 138.595 50.0884 138.861 50.4437 139.09C50.7943 139.333 51.1904 139.531 51.6319 139.685C53.1439 140.213 54.5978 140.114 55.9938 139.387L56.552 140.751C55.8377 141.162 55.0046 141.418 54.0527 141.521C53.0827 141.632 52.0625 141.5 50.9921 141.127C50.3364 140.898 49.749 140.602 49.2298 140.241C48.6972 139.875 48.2707 139.464 47.9501 139.007C47.6115 138.559 47.3947 138.063 47.2995 137.52C47.1997 136.99 47.2481 136.444 47.4446 135.883C47.6131 135.402 47.8541 135.014 48.1678 134.718C48.4815 134.423 48.8232 134.197 49.1931 134.042C49.563 133.886 49.95 133.789 50.354 133.75C50.74 133.72 51.0962 133.732 51.4227 133.786C51.1243 133.651 50.8202 133.448 50.5104 133.174C50.2006 132.901 49.9386 132.577 49.7245 132.203C49.5103 131.828 49.3731 131.405 49.3128 130.934C49.239 130.458 49.2958 129.953 49.483 129.419C49.6795 128.857 49.9801 128.385 50.3847 128.001C50.7893 127.618 51.2732 127.329 51.8364 127.136C52.395 126.956 53.0171 126.874 53.7028 126.888C54.3838 126.916 55.0989 127.061 55.8482 127.322Z" stroke="black" mask="url(#path-1-outside-1_0_219)"/>
<path d="M37.9721 118.382L37.2318 121.684L43.0594 125.663L45.8709 123.775L47.5384 124.914L34.8307 133.395L33.0227 132.161L36.3046 117.244L37.9721 118.382ZM34.9499 131.264L41.7502 126.672L36.7827 123.281L34.9499 131.264Z" stroke="black" mask="url(#path-1-outside-1_0_219)"/>
<path d="M34.0085 115.491L27.1303 116.376C27.4132 116.768 27.6279 117.2 27.7744 117.672C27.9116 118.134 27.9627 118.604 27.9278 119.083C27.8928 119.563 27.7572 120.045 27.5208 120.529C27.2752 121.003 26.9111 121.448 26.4285 121.865C25.9352 122.291 25.4206 122.595 24.8848 122.776C24.3396 122.948 23.7979 123.004 23.2595 122.944C22.7104 122.894 22.1847 122.731 21.6824 122.453C21.1707 122.165 20.7017 121.775 20.2754 121.282L16.5493 116.976L27.2794 107.714L28.4333 109.048L24.1703 112.728L26.0333 114.881L32.6599 113.932L34.0085 115.491ZM22.9959 113.741L18.8937 117.282L21.3407 120.11C21.8875 120.742 22.5201 121.094 23.2384 121.166C23.9567 121.239 24.6215 121.011 25.2329 120.483C25.8442 119.956 26.1714 119.327 26.2145 118.597C26.247 117.877 25.9897 117.201 25.4429 116.569L22.9959 113.741Z" stroke="black" mask="url(#path-1-outside-1_0_219)"/>
<path d="M24.3562 104.049L11.6465 110.333L8.84473 104.681C8.5743 104.135 8.4116 103.6 8.35663 103.074C8.28896 102.555 8.32574 102.07 8.46698 101.621C8.59552 101.179 8.82217 100.774 9.14692 100.408C9.45897 100.049 9.85001 99.7528 10.32 99.5204C10.7265 99.3194 11.1264 99.2007 11.5196 99.1642C11.9065 99.1151 12.2804 99.1356 12.6414 99.2257C12.9834 99.3093 13.303 99.4435 13.6002 99.6283C13.8847 99.8194 14.131 100.045 14.3392 100.306C14.2202 99.9378 14.1837 99.561 14.2296 99.175C14.2692 98.7762 14.3753 98.3999 14.5478 98.0461C14.7141 97.6795 14.9436 97.3449 15.2364 97.0421C15.523 96.7267 15.8568 96.4748 16.2379 96.2863C16.746 96.0351 17.2506 95.8883 17.7515 95.846C18.2525 95.8036 18.734 95.8657 19.1961 96.0321C19.6582 96.1985 20.0851 96.4693 20.4766 96.8444C20.8619 97.2068 21.1992 97.6798 21.4885 98.2634L24.3562 104.049ZM14.4837 102.224C14.1253 101.501 13.6643 101.05 13.1008 100.87C12.5246 100.697 11.9443 100.755 11.36 101.044C10.7883 101.327 10.3968 101.749 10.1854 102.312C9.96123 102.881 10.0284 103.527 10.3869 104.25L12.2736 108.056L16.3704 106.031L14.4837 102.224ZM20.2387 99.2842C19.8677 98.5356 19.391 98.0526 18.8086 97.835C18.2073 97.611 17.5636 97.6686 16.8777 98.0078C16.5855 98.1523 16.3312 98.3412 16.1147 98.5746C15.8982 98.808 15.745 99.0733 15.6551 99.3705C15.5462 99.6613 15.5069 99.9809 15.5372 100.329C15.5548 100.684 15.6611 101.058 15.8561 101.451L17.7805 105.333L22.1632 103.167L20.2387 99.2842Z" stroke="black" mask="url(#path-1-outside-1_0_219)"/>
<path d="M16.2123 82.0074L11.029 88.5382L12.8957 89.6121L17.5636 88.6674L17.9141 90.3949L4.01462 93.2079L3.66412 91.4805L10.8535 90.0254L2.41839 85.3408L1.97922 83.1763L9.75907 87.6252L15.7774 79.8637L16.2123 82.0074Z" stroke="black" mask="url(#path-1-outside-1_0_219)"/>
<path d="M15.5722 74.8299C15.5401 75.4236 15.4045 75.9621 15.1654 76.4454C14.9263 76.9287 14.637 77.2888 14.2977 77.5257L12.9366 76.7078C13.2193 76.4679 13.4611 76.1974 13.662 75.8964C13.8636 75.5812 13.9751 75.2256 13.9965 74.8298C14.0118 74.5471 13.9895 74.3049 13.9294 74.1031C13.8701 73.8873 13.7676 73.6832 13.6218 73.4911C13.4619 73.2981 13.2588 73.117 13.0125 72.9478C12.7669 72.7644 12.4654 72.5638 12.1081 72.346L11.6336 72.0652L1 76.9351L1.10907 74.9207L10.1176 70.9625L1.58895 66.0572L1.69802 64.0427L13.02 70.8428C13.4323 71.0919 13.8019 71.3458 14.1286 71.6044C14.4552 71.8631 14.7309 72.1474 14.9554 72.4572C15.18 72.7671 15.3456 73.1163 15.4523 73.5049C15.5598 73.8793 15.5998 74.3209 15.5722 74.8299Z" stroke="black" mask="url(#path-1-outside-1_0_219)"/>
<path d="M22.6768 44.8808L11.4189 39.2103L7.68482 46.6049L18.9427 52.2755L18.148 53.8493L5.48527 47.4711L10.8087 36.9289L23.4715 43.3071L22.6768 44.8808Z" stroke="black" mask="url(#path-1-outside-1_0_219)"/>
<path d="M30.5037 34.434C29.7783 35.1907 28.9835 35.7537 28.1194 36.123C27.2552 36.4923 26.372 36.6767 25.4697 36.6763C24.5669 36.6559 23.6754 36.4601 22.795 36.0887C21.9147 35.7174 21.0957 35.1695 20.338 34.445C19.5803 33.7206 18.9965 32.9273 18.5867 32.0651C18.1769 31.2029 17.9472 30.3267 17.8977 29.4367C17.8478 28.5266 17.9887 27.6323 18.3204 26.754C18.6521 25.8757 19.1806 25.0581 19.906 24.3013C20.6314 23.5446 21.4261 22.9816 22.2903 22.6123C23.1545 22.243 24.0379 22.0686 24.9407 22.089C25.843 22.0894 26.7343 22.2752 27.6146 22.6466C28.495 23.0179 29.314 23.5658 30.0717 24.2903C30.8294 25.0147 31.4132 25.808 31.823 26.6702C32.2328 27.5324 32.4627 28.4186 32.5126 29.3287C32.5621 30.2187 32.421 31.103 32.0893 31.9813C31.7576 32.8596 31.229 33.6772 30.5037 34.434ZM29.3671 33.3473C29.916 32.7746 30.3087 32.1603 30.545 31.5043C30.7711 30.8385 30.8566 30.1658 30.8017 29.4861C30.7365 28.7966 30.5364 28.1251 30.2013 27.4715C29.8658 26.798 29.4011 26.1773 28.8072 25.6095C28.2133 25.0416 27.5722 24.605 26.8838 24.2996C26.2052 23.9839 25.5247 23.8135 24.8424 23.7883C24.1601 23.7631 23.496 23.8827 22.8502 24.1471C22.194 24.4017 21.5915 24.8154 21.0426 25.388C20.4936 25.9607 20.1012 26.5851 19.8654 27.2611C19.629 27.917 19.5383 28.5849 19.5933 29.2646C19.6482 29.9442 19.8484 30.6158 20.1937 31.2791C20.539 31.9424 21.0086 32.558 21.6025 33.1258C22.1964 33.6937 22.8326 34.1354 23.5112 34.451C24.1796 34.7569 24.86 34.9273 25.5525 34.9623C26.2348 34.9875 26.904 34.8728 27.5602 34.6182C28.2159 34.3436 28.8182 33.9199 29.3671 33.3473Z" stroke="black" mask="url(#path-1-outside-1_0_219)"/>
<path d="M36.5222 25.7219C36.8792 25.4893 37.1651 25.2316 37.38 24.9488C37.6073 24.659 37.7412 24.2755 37.7818 23.7981C37.8224 23.3208 37.7461 22.7223 37.553 22.0026C37.3722 21.276 37.0549 20.3499 36.6011 19.2243L33.8749 12.5947L41.4398 8.35389L47.6112 19.335L48.7422 18.701L50.7924 22.349L49.2535 23.2117L47.9734 20.934L38.7584 26.0999L40.0385 28.3776L38.4996 29.2403L36.5222 25.7219ZM38.1839 18.4831C38.7587 19.8818 39.0901 21.0354 39.178 21.9439C39.266 22.8525 39.1784 23.6078 38.9153 24.2098L46.0723 20.1977L40.671 10.5869L36.0171 13.1958L38.1839 18.4831Z" stroke="black" mask="url(#path-1-outside-1_0_219)"/>
<path d="M62.9852 16.1308L61.0558 13.3498L54.1772 14.9339L53.6618 18.2779L51.6935 18.7312L54.0595 3.65052L56.1936 3.15905L64.9535 15.6775L62.9852 16.1308ZM55.5478 5.18196L54.3209 13.2881L60.1842 11.9378L55.5478 5.18196Z" stroke="black" mask="url(#path-1-outside-1_0_219)"/>
<path d="M72.2186 15.2957L72.6078 2.70901L68.1236 2.57068L68.1722 1L78.9258 1.33172L78.8773 2.90241L74.3718 2.76342L73.9825 15.3501L72.2186 15.2957Z" stroke="black" mask="url(#path-1-outside-1_0_219)"/>
<path d="M88.0938 2.62378L86.5583 8.03821L90.3429 9.10882C91.0112 9.29787 91.5804 9.57659 92.0505 9.945C92.5206 10.3134 92.8857 10.7404 93.1457 11.2259C93.4097 11.6979 93.5657 12.2129 93.6137 12.7709C93.6655 13.3152 93.6123 13.8667 93.4539 14.4251C93.2955 14.9836 93.0494 15.4878 92.7155 15.9378C92.3855 16.3741 91.9823 16.7309 91.5059 17.0082C91.047 17.2756 90.5207 17.4431 89.927 17.5106C89.3333 17.578 88.6955 17.5153 88.0136 17.3224L82.5309 15.7715L86.3958 2.14345L88.0938 2.62378ZM86.1295 9.55016L84.6577 14.7398L88.2378 15.7526C89.0561 15.9841 89.7783 15.9309 90.4045 15.593C91.0443 15.259 91.4743 14.7038 91.6945 13.9274C91.9147 13.151 91.8401 12.4531 91.4707 11.8336C91.1149 11.218 90.5279 10.7944 89.7096 10.5629L86.1295 9.55016Z" stroke="black" mask="url(#path-1-outside-1_0_219)"/>
<path d="M106.436 26.3267C105.944 25.944 105.519 25.5327 105.161 25.0929C104.806 24.673 104.509 24.2357 104.271 23.7811C104.043 23.3352 103.877 22.8918 103.772 22.4509C103.677 22.0188 103.641 21.6047 103.662 21.2086L105.177 20.96C105.173 21.6566 105.364 22.3794 105.75 23.1284C106.136 23.8774 106.676 24.5215 107.369 25.0609C108.252 25.7481 109.084 26.0988 109.863 26.113C110.663 26.1248 111.315 25.8067 111.82 25.1589C112.09 24.8127 112.248 24.4602 112.295 24.1014C112.361 23.7401 112.326 23.3812 112.191 23.0248C112.056 22.6683 111.84 22.3118 111.543 21.9553C111.246 21.5987 110.885 21.2551 110.46 20.9246L108.179 19.1499L109.145 17.9102L111.427 19.6848C111.796 19.9719 112.169 20.2081 112.545 20.3933C112.942 20.5761 113.32 20.6906 113.679 20.7368C114.047 20.7718 114.391 20.7342 114.71 20.6239C115.038 20.5024 115.329 20.2798 115.581 19.9559C115.825 19.6431 115.966 19.313 116.004 18.9653C116.052 18.6264 116.015 18.283 115.891 17.9353C115.775 17.5764 115.586 17.2317 115.323 16.9012C115.068 16.5596 114.756 16.2452 114.387 15.9582C113.123 14.9751 111.714 14.6054 110.158 14.8489L110.066 13.3775C110.874 13.2167 111.746 13.2396 112.681 13.4464C113.635 13.6506 114.56 14.1008 115.454 14.7967C116.002 15.223 116.465 15.6901 116.841 16.1982C117.229 16.715 117.501 17.2411 117.659 17.7763C117.836 18.3091 117.883 18.848 117.799 19.3931C117.724 19.9269 117.504 20.4284 117.138 20.8975C116.824 21.2996 116.472 21.5905 116.08 21.7703C115.688 21.95 115.292 22.0547 114.892 22.0842C114.492 22.1137 114.094 22.0824 113.698 21.9903C113.323 21.8956 112.989 21.7706 112.697 21.6152C112.937 21.8376 113.16 22.1277 113.366 22.4855C113.572 22.8432 113.717 23.2338 113.8 23.6573C113.883 24.0807 113.878 24.5252 113.784 24.9908C113.702 25.465 113.486 25.9256 113.138 26.3723C112.772 26.8414 112.336 27.1931 111.83 27.4274C111.324 27.6618 110.773 27.7806 110.177 27.7839C109.591 27.776 108.975 27.6558 108.33 27.4232C107.693 27.1794 107.062 26.8139 106.436 26.3267Z" stroke="black" mask="url(#path-1-outside-1_0_219)"/>
<path d="M120.583 40.4166L122.327 37.5158L118.05 31.9066L114.787 32.8138L113.563 31.2087L128.299 27.1558L129.625 28.896L121.807 42.0216L120.583 40.4166ZM127.514 29.1407L119.611 31.3601L123.257 36.1414L127.514 29.1407Z" stroke="black" mask="url(#path-1-outside-1_0_219)"/>
<path d="M123.536 44.5127L130.338 45.8594C130.195 45.3979 130.129 44.9199 130.141 44.4256C130.158 43.9444 130.259 43.4821 130.445 43.0389C130.631 42.5956 130.913 42.1818 131.291 41.7974C131.675 41.4262 132.162 41.1197 132.752 40.8781C133.355 40.6312 133.94 40.5067 134.506 40.5045C135.077 40.5155 135.609 40.6346 136.1 40.8618C136.605 41.0836 137.051 41.4059 137.439 41.8285C137.832 42.2642 138.153 42.7834 138.4 43.386L140.561 48.6521L127.438 54.0231L126.769 52.3922L131.982 50.2583L130.902 47.6252L124.318 46.4188L123.536 44.5127ZM133.419 49.6704L138.436 47.617L137.017 44.1587C136.699 43.3858 136.212 42.851 135.554 42.5542C134.896 42.2574 134.193 42.262 133.446 42.568C132.698 42.874 132.187 43.366 131.914 44.0439C131.654 44.7165 131.682 45.4392 132 46.2121L133.419 49.6704Z" stroke="black" mask="url(#path-1-outside-1_0_219)"/>
<path d="M129.1 58.5841L143.161 56.734L143.985 62.9869C144.065 63.5904 144.046 64.1498 143.928 64.6651C143.824 65.1786 143.633 65.625 143.354 66.0044C143.089 66.3819 142.744 66.6915 142.319 66.9332C141.907 67.173 141.441 67.3271 140.921 67.3955C140.471 67.4547 140.055 67.4381 139.671 67.3458C139.289 67.2676 138.941 67.1277 138.629 66.926C138.332 66.7366 138.073 66.5065 137.852 66.2358C137.644 65.9632 137.484 65.6702 137.371 65.3566C137.365 65.743 137.278 66.1114 137.109 66.462C136.943 66.8266 136.721 67.1485 136.443 67.4278C136.167 67.7212 135.842 67.9639 135.467 68.156C135.094 68.3622 134.696 68.493 134.275 68.5485C133.713 68.6225 133.188 68.5987 132.7 68.4773C132.212 68.3559 131.776 68.1419 131.393 67.8354C131.009 67.5289 130.693 67.135 130.443 66.6537C130.196 66.1865 130.03 65.6301 129.944 64.9844L129.1 58.5841ZM137.854 63.4938C137.96 64.2938 138.25 64.8696 138.726 65.2212C139.215 65.5709 139.783 65.7032 140.429 65.6181C141.062 65.5349 141.569 65.2611 141.951 64.7968C142.347 64.3306 142.492 63.6974 142.387 62.8974L141.831 58.6867L137.299 59.2831L137.854 63.4938ZM131.457 64.4213C131.566 65.2494 131.861 65.8603 132.342 66.2539C132.839 66.6598 133.467 66.8128 134.226 66.7129C134.549 66.6704 134.851 66.5736 135.131 66.4224C135.411 66.2713 135.642 66.0696 135.823 65.8173C136.02 65.5772 136.161 65.2874 136.245 64.9479C136.343 64.6066 136.363 64.2184 136.306 63.7833L135.739 59.4883L130.891 60.1263L131.457 64.4213Z" stroke="black" mask="url(#path-1-outside-1_0_219)"/>
<circle cx="73.5" cy="72.5" r="49.5" fill="#007DFF"/>
</svg>


