<svg width="16" height="16" viewBox="0 0 16 16" fill="none" xmlns="http://www.w3.org/2000/svg">
<g clip-path="url(#clip0_0_141)">
<path fill-rule="evenodd" clip-rule="evenodd" d="M4.97968 0.710016C5.76168 0.674016 6.01101 0.666016 8.00301 0.666016C9.99501 0.666016 10.2443 0.674682 11.0257 0.710016C11.807 0.745349 12.3403 0.870016 12.807 1.05068C13.2957 1.23535 13.739 1.52402 14.1057 1.89735C14.479 2.26335 14.767 2.70602 14.951 3.19535C15.1323 3.66202 15.2563 4.19535 15.2923 4.97535C15.3283 5.75868 15.3363 6.00802 15.3363 7.99935C15.3363 9.99135 15.3277 10.2407 15.2923 11.0227C15.257 11.8027 15.1323 12.336 14.951 12.8027C14.767 13.2921 14.4785 13.7355 14.1057 14.102C13.739 14.4753 13.2957 14.7633 12.807 14.9473C12.3403 15.1287 11.807 15.2527 11.027 15.2887C10.2443 15.3247 9.99501 15.3327 8.00301 15.3327C6.01101 15.3327 5.76168 15.324 4.97968 15.2887C4.19968 15.2533 3.66634 15.1287 3.19968 14.9473C2.71029 14.7633 2.26689 14.4749 1.90034 14.102C1.52726 13.7358 1.23855 13.2926 1.05434 12.8033C0.873678 12.3367 0.749678 11.8033 0.713678 11.0233C0.677678 10.24 0.669678 9.99068 0.669678 7.99935C0.669678 6.00735 0.678344 5.75802 0.713678 4.97668C0.749011 4.19535 0.873678 3.66202 1.05434 3.19535C1.23883 2.70607 1.52776 2.26289 1.90101 1.89668C2.26704 1.52368 2.70999 1.23498 3.19901 1.05068C3.66568 0.870016 4.19901 0.746016 4.97901 0.710016H4.97968ZM10.9663 2.03002C10.193 1.99468 9.96101 1.98735 8.00301 1.98735C6.04501 1.98735 5.81301 1.99468 5.03968 2.03002C4.32434 2.06268 3.93634 2.18202 3.67768 2.28268C3.33568 2.41602 3.09101 2.57402 2.83434 2.83068C2.59104 3.06738 2.4038 3.35554 2.28634 3.67402C2.18568 3.93268 2.06634 4.32068 2.03368 5.03602C1.99834 5.80935 1.99101 6.04135 1.99101 7.99935C1.99101 9.95735 1.99834 10.1893 2.03368 10.9627C2.06634 11.678 2.18568 12.066 2.28634 12.3247C2.40368 12.6427 2.59101 12.9313 2.83434 13.168C3.07101 13.4113 3.35968 13.5987 3.67768 13.716C3.93634 13.8167 4.32434 13.936 5.03968 13.9687C5.81301 14.004 6.04434 14.0113 8.00301 14.0113C9.96168 14.0113 10.193 14.004 10.9663 13.9687C11.6817 13.936 12.0697 13.8167 12.3283 13.716C12.6703 13.5827 12.915 13.4247 13.1717 13.168C13.415 12.9313 13.6023 12.6427 13.7197 12.3247C13.8203 12.066 13.9397 11.678 13.9723 10.9627C14.0077 10.1893 14.015 9.95735 14.015 7.99935C14.015 6.04135 14.0077 5.80935 13.9723 5.03602C13.9397 4.32068 13.8203 3.93268 13.7197 3.67402C13.5863 3.33202 13.4283 3.08735 13.1717 2.83068C12.935 2.5874 12.6468 2.40016 12.3283 2.28268C12.0697 2.18202 11.6817 2.06268 10.9663 2.03002ZM7.06634 10.26C7.58945 10.4778 8.17193 10.5072 8.7143 10.3432C9.25666 10.1792 9.72527 9.83196 10.0401 9.36084C10.3549 8.88973 10.4964 8.32393 10.4404 7.76009C10.3844 7.19624 10.1343 6.66933 9.73301 6.26935C9.47717 6.01367 9.16782 5.81789 8.82723 5.69611C8.48664 5.57434 8.1233 5.52959 7.76334 5.56509C7.40338 5.6006 7.05578 5.71547 6.74555 5.90144C6.43531 6.0874 6.17017 6.33985 5.96921 6.64058C5.76825 6.94132 5.63647 7.28288 5.58335 7.64066C5.53024 7.99844 5.55711 8.36354 5.66204 8.70969C5.76696 9.05584 5.94733 9.37442 6.19016 9.6425C6.43298 9.91057 6.73223 10.1215 7.06634 10.26ZM5.33768 5.33402C5.68769 4.984 6.10322 4.70635 6.56054 4.51692C7.01786 4.3275 7.50801 4.23 8.00301 4.23C8.49801 4.23 8.98816 4.3275 9.44548 4.51692C9.9028 4.70635 10.3183 4.984 10.6683 5.33402C11.0184 5.68403 11.296 6.09956 11.4854 6.55688C11.6749 7.0142 11.7724 7.50435 11.7724 7.99935C11.7724 8.49435 11.6749 8.9845 11.4854 9.44182C11.296 9.89914 11.0184 10.3147 10.6683 10.6647C9.96145 11.3716 9.0027 11.7687 8.00301 11.7687C7.00332 11.7687 6.04457 11.3716 5.33768 10.6647C4.63079 9.95779 4.23366 8.99904 4.23366 7.99935C4.23366 6.99966 4.63079 6.04091 5.33768 5.33402ZM12.6083 4.79135C12.6951 4.70953 12.7645 4.61114 12.8125 4.502C12.8606 4.39286 12.8862 4.27519 12.888 4.15597C12.8897 4.03674 12.8675 3.91838 12.8227 3.80789C12.7778 3.6974 12.7113 3.59702 12.627 3.51271C12.5427 3.42839 12.4423 3.36185 12.3318 3.31703C12.2213 3.2722 12.1029 3.25 11.9837 3.25174C11.8645 3.25348 11.7468 3.27912 11.6377 3.32715C11.5286 3.37517 11.4302 3.44461 11.3483 3.53135C11.1892 3.70004 11.1021 3.9241 11.1055 4.15597C11.1089 4.38784 11.2025 4.60927 11.3664 4.77324C11.5304 4.93722 11.7518 5.03083 11.9837 5.03421C12.2156 5.0376 12.4397 4.95048 12.6083 4.79135Z" fill="#70777A"/>
</g>
<defs>
<clipPath id="clip0_0_141">
<rect width="16" height="16" fill="white" transform="translate(0.000244141)"/>
</clipPath>
</defs>
</svg>
