<svg width="16" height="16" viewBox="0 0 16 16" fill="none" xmlns="http://www.w3.org/2000/svg">
<path d="M3.3239 4.79819C4.1295 4.79819 4.78257 4.14513 4.78257 3.33953C4.78257 2.53393 4.1295 1.88086 3.3239 1.88086C2.5183 1.88086 1.86523 2.53393 1.86523 3.33953C1.86523 4.14513 2.5183 4.79819 3.3239 4.79819Z" fill="#70777A"/>
<path d="M6.15765 5.9041V13.9968H8.67032V9.99477C8.67032 8.93877 8.86899 7.9161 10.1783 7.9161C11.4697 7.9161 11.4857 9.12343 11.4857 10.0614V13.9974H13.9997V9.55944C13.9997 7.37944 13.5303 5.7041 10.9823 5.7041C9.75899 5.7041 8.93899 6.37543 8.60365 7.01077H8.56965V5.9041H6.15765ZM2.06299 5.9041H4.57965V13.9968H2.06299V5.9041Z" fill="#70777A"/>
</svg>
